PathFileType	4	(X/Y/Z)	AB09\squats_1.trc
DataRate	CameraRate	NumFrames	NumMarkers	Units	OrigDataRate	OrigDataStartFrame	OrigNumFrames
200.000000	200.000000	4	35	mm	200.000000	0	332
Frame#	Time	C7			LSHO			STRN			LASI			RASI			LPSI			RPSI			LGTR			RGTR			LTHC			LTHL			LTHR			LKNE			LMKNE			LSHC			LSHL			LSHR			LANK			LMANK			LMT1			LMT5			LCAL			RTHC			RTHL			RTHR			RKNE			RMKNE			RSHC			RSHL			RSHR			RANK			RMANK			RMT1			RMT5			RCAL			
		X1	Y1	Z1	X2	Y2	Z2	X3	Y3	Z3	X4	Y4	Z4	X5	Y5	Z5	X6	Y6	Z6	X7	Y7	Z7	X8	Y8	Z8	X9	Y9	Z9	X10	Y10	Z10	X11	Y11	Z11	X12	Y12	Z12	X13	Y13	Z13	X14	Y14	Z14	X15	Y15	Z15	X16	Y16	Z16	X17	Y17	Z17	X18	Y18	Z18	X19	Y19	Z19	X20	Y20	Z20	X21	Y21	Z21	X22	Y22	Z22	X23	Y23	Z23	X24	Y24	Z24	X25	Y25	Z25	X26	Y26	Z26	X27	Y27	Z27	X28	Y28	Z28	X29	Y29	Z29	X30	Y30	Z30	X31	Y31	Z31	X32	Y32	Z32	X33	Y33	Z33	X34	Y34	Z34	X35	Y35	Z35	

1	20.165	-3418.133370570662	1553.171936798545	2508.94145440998	-3514.334785232661	1508.988501689818	2691.73150986052	-3616.19430853189	1306.057792420035	2507.037585723895	-3504.684463380839	1037.213833187414	2664.096987750065	-3515.625724847913	1013.095928795672	2371.590339895898	-3319.242078564385	1050.762215849377	2579.968646665629	-3317.295213087372	1042.016382099484	2443.737274947909	-3432.072734968385	943.9094721332278	2726.011401250512	-3426.58666144372	924.6463113359551	2307.156596029656	-3514.204637968419	727.2403996088104	2740.995548641108	-3588.352452126824	680.8780054209647	2651.601618919219	-3397.592856587542	612.40944759412	2652.202539000067	-3521.914617467785	530.2269321165505	2732.840378024977	-3531.793461469487	510.3626675537951	2603.667875649511	-3411.252177577373	432.9570445590936	2726.859456897447	-3548.133646430404	378.8681321629077	2691.637788214707	-3485.007252856634	307.1296578007451	2755.699906235379	-3433.195702090147	107.4497276305498	2741.749687394011	-3474.163764763122	118.2364795980576	2647.443304536668	-3583.796803121634	79.1018642631083	2685.993518065253	-3536.150971375539	54.65272990212245	2786.703824332603	-3360.955198736679	70.58088587383887	2673.214442962618	-3384.381768956971	629.0534483607694	2373.206030420059	-3486.853360201782	698.2304201404551	2278.994574984235	-3580.062744211118	696.2347779044376	2340.51331887901	-3484.892715186506	533.050362953862	2291.000291313912	-3520.899007388931	516.8315086708893	2430.828816986116	-3452.208055744187	318.3979244638957	2261.299786401145	-3394.230452767897	415.6286575347817	2307.249820956909	-3538.008674713431	376.7443695693001	2348.107218826943	-3435.15487002908	107.3457513513551	2282.878076460384	-3479.129359191111	115.4900589193721	2376.953028623266	-3602.884907558132	65.76287019786045	2319.271960332171	-3549.398785281247	61.4983441226273	2215.257768874435	-3379.637373776154	69.98530578543176	2361.34462718193	
2	20.17	-3418.959010825594	1552.19228018513	2509.089528374391	-3515.249075552471	1507.770015817707	2691.686471992261	-3616.094404343203	1304.462523753363	2507.213763298255	-3503.084855953204	1036.139632177802	2663.958127344107	-3514.039557838234	1012.077748957215	2371.671747908254	-3317.779724093021	1050.103894491007	2579.89445132351	-3315.852286801035	1041.422736601762	2443.603091696513	-3430.369922244506	943.0123937100554	2725.941274264585	-3425.218526248687	923.8427024298578	2306.971663734125	-3514.132197539487	726.7870954317747	2741.283184542554	-3588.480035719117	680.9663489578476	2652.050975613011	-3398.302866811143	611.2881244850691	2652.564622615654	-3523.042514340914	529.9187073676685	2733.136859315565	-3533.106425276216	510.0947064911355	2604.135871621718	-3412.493622281021	432.8182443128017	2727.360563344276	-3549.2489015865	378.4311520343841	2691.904929271129	-3485.892450038004	306.8085947243366	2755.89939265344	-3433.309029217272	107.4084842194002	2741.787019342278	-3474.275189786289	118.2140797695808	2647.498328959108	-3583.80262233105	79.17591381533218	2686.03636592609	-3536.132210906515	54.67117799965849	2786.687910158333	-3360.953856573861	70.56339085780836	2673.238765234801	-3385.24414612262	627.7537471845786	2372.1411939777	-3487.432637676547	697.7895913063081	2278.460838718422	-3580.444002697795	696.4873297504746	2340.259221533508	-3486.790510797674	532.699101769661	2290.090925634396	-3522.436074201816	516.7106146713171	2430.060127906054	-3453.594666866797	318.199685296389	2260.694656859434	-3395.946941140916	415.68739029661	2306.360025131742	-3539.485291073459	376.3823490437394	2347.603942303137	-3435.275945570195	107.3452402504244	2282.81113353282	-3479.240487232771	115.5487105967793	2376.910917537051	-3602.863925365292	65.78315748228923	2319.340381698604	-3549.407158847433	61.54235868835755	2215.32035622482	-3379.631991435826	69.99484621390467	2361.356226213978	
3	20.175	-3419.7904416997	1551.205841968968	2509.238355332523	-3516.166673201654	1506.542361304823	2691.64036149594	-3615.99543507129	1302.858110050131	2507.38997325333	-3501.480883505844	1035.060035851297	2663.817510763122	-3512.449876644511	1011.052244630732	2371.752411604959	-3316.31278411983	1049.442754913346	2579.819966883128	-3314.405109486423	1040.823235764545	2443.468463031686	-3428.662191692165	942.111896925677	2725.86919900737	-3423.847497242395	923.0343187748264	2306.784862164406	-3514.057158773631	726.3284698188968	2741.571568752012	-3588.610574847863	681.0541224034756	2652.501572613861	-3399.0114494395	610.1589685881626	2652.929804948371	-3524.176604504695	529.6070024269991	2733.435237450079	-3534.42262865674	509.8268289487918	2604.601197515886	-3413.741329674937	432.6768317098375	2727.863782978697	-3550.367667587293	377.9920592258248	2692.166853914695	-3486.783572432638	306.4852806034008	2756.095511274245	-3433.422396677635	107.3673206770355	2741.822596822902	-3474.386434848718	118.1907450366606	2647.551402725463	-3583.809453216164	79.24892494228216	2686.077217193801	-3536.113233803262	54.69012765690172	2786.671706421051	-3360.952215069413	70.54566353281577	2673.262196927777	-3386.1137708225	626.4466177540306	2371.067949354865	-3488.017794214399	697.3471868844492	2277.921595305028	-3580.827324225502	696.7380317375514	2340.003938108126	-3488.697077404692	532.3457057453453	2289.177707437909	-3523.980742355451	516.5852741157316	2429.286679400005	-3454.987606443967	317.9985909734114	2260.086927396971	-3397.670777351057	415.7442542134057	2305.460096596593	-3540.965011637034	376.0179174215466	2347.100688135877	-3435.397050106617	107.3441414228012	2282.743027425696	-3479.352030894546	115.6075110824453	2376.868369138377	-3602.843200038506	65.80345607568928	2319.408373213483	-3549.415436280808	61.58627346494418	2215.382457217329	-3379.626942653033	70.0035991965414	2361.367342201876	
4	20.18	-3420.628033764577	1550.207469778229	2509.387489645243	-3517.086584843834	1505.300264303405	2691.592840635229	-3615.897576901665	1301.239473185847	2507.565505914862	-3499.874288081833	1033.971435438019	2663.675220090095	-3510.85987116603	1010.014820488976	2371.831994863731	-3314.842665308614	1048.775212801225	2579.744245765457	-3312.955607892743	1040.213232543519	2443.332785275463	-3426.951597336915	941.2052594319431	2725.794451172037	-3422.476467862868	922.2177215533071	2306.595544177147	-3513.978034145486	725.8628643430341	2741.860480304759	-3588.745036432936	681.1391368366636	2652.951760983371	-3399.717106777076	609.020124795258	2653.29986960957	-3525.318646115653	529.2906193674835	2733.736361826247	-3535.740991350093	509.5588823603871	2605.061857583483	-3414.99541873131	432.5322480447085	2728.368448368688	-3551.489244020735	377.5506779198978	2692.421804854141	-3487.681056528287	306.1593636271792	2756.286814364981	-3433.535931169979	107.3264900166463	2741.855392251514	-3474.497427860609	118.1660088892157	2647.601347883567	-3583.81771708825	79.31979751092143	2686.11523459791	-3536.094154976343	54.70986580981216	2786.655381331193	-3360.950261335921	70.52778195446766	2673.283980924773	-3386.991701357457	625.1313048616704	2369.987121919404	-3488.608209144809	696.9016753398641	2277.376021475437	-3581.211442524177	696.9830825884277	2339.746973132676	-3490.609675749153	531.9889205967481	2288.261858820208	-3525.531315249223	516.4530948351214	2428.509207640914	-3456.384389430268	317.7938035407232	2259.478009882036	-3399.399257282866	415.7978798260042	2304.549654987941	-3542.44469612401	375.6504317260337	2346.598692317113	-3435.517810161267	107.3420611154701	2282.673719925247	-3479.464304733103	115.6661448984886	2376.825502019506	-3602.822842716351	65.82377822450862	2319.475407393555	-3549.423609464733	61.6298123506003	2215.443678005251	-3379.622113634275	70.01144850586432	2361.377610044739	
